<?xml version="1.0" encoding="UTF-8"?>
<svg xmlns="http://www.w3.org/2000/svg" xmlns:xlink="http://www.w3.org/1999/xlink" width="192px" height="192px" viewBox="0 0 192 192" version="1.1">
<g id="surface1">
<path style=" stroke:none;fill-rule:nonzero;fill:rgb(25.098039%,23.921569%,24.313725%);fill-opacity:1;" d="M 45.097656 99.011719 C 43.617188 97.964844 42.023438 96.929688 40.566406 95.789062 C 35.960938 92.179688 34.441406 87.871094 36.828125 83.136719 C 39.234375 78.371094 44.113281 75.800781 50.707031 75.3125 C 57.785156 74.789062 63.753906 76.964844 69.421875 80.230469 C 69.421875 79.867188 69.53125 79.597656 69.40625 79.476562 C 54.78125 65.242188 39.402344 51.570312 20.609375 40.457031 C 19.515625 39.808594 18.390625 39.1875 17.269531 38.566406 C 10.6875 34.890625 8.398438 29.917969 10.996094 24.921875 C 13.589844 19.925781 21.125 16.414062 28.3125 17.457031 C 31.933594 17.980469 35.6875 19.164062 38.699219 20.800781 C 59.117188 31.882812 77.144531 45.085938 94.332031 59 C 100.195312 63.746094 105.839844 68.660156 111.503906 73.554688 C 118.550781 79.652344 127.214844 80.242188 135.359375 74.992188 C 138.042969 73.261719 140.410156 71.238281 143.035156 69.449219 C 149.140625 65.285156 156.058594 62.085938 163.582031 59.75 C 170.011719 57.75 176.632812 57.683594 183.179688 59.519531 C 188.730469 61.074219 191.945312 64.484375 192.085938 68.773438 C 192.226562 73.15625 188.976562 75.652344 184.21875 77.445312 C 180.230469 78.953125 176.171875 80.445312 172.523438 82.378906 C 162.695312 87.585938 159.21875 95.566406 156.9375 104.152344 C 155.648438 109.023438 156.382812 113.128906 159.414062 117.675781 C 167.738281 130.167969 170.660156 143.394531 165.335938 157.234375 C 165.273438 157.390625 165.230469 157.554688 165.175781 157.710938 C 163.667969 162.117188 160.6875 164.996094 154.707031 166.855469 C 136.117188 172.640625 119.167969 180.773438 103.496094 190.441406 C 101.425781 191.71875 99.382812 192.183594 96.824219 192.089844 C 82.484375 191.570312 69.820312 187.4375 58.113281 181.328125 C 39.667969 171.707031 24.199219 159.535156 9.363281 146.847656 C 6.882812 144.726562 4.347656 142.550781 2.484375 140.101562 C -3.679688 132.007812 2.140625 123.230469 14.289062 122.195312 C 17.617188 121.914062 21.023438 122.152344 24.539062 122.152344 C 23.59375 121.507812 22.589844 120.8125 21.574219 120.125 C 16.40625 116.613281 14.214844 112.332031 16.324219 107.113281 C 18.238281 102.371094 24.433594 98.699219 31.238281 98.515625 C 35.734375 98.394531 40.253906 98.816406 45.097656 99.011719 "/>
<path style=" stroke:none;fill-rule:nonzero;fill:rgb(25.098039%,23.921569%,24.313725%);fill-opacity:1;" d="M 144.886719 41.980469 C 145.414062 40.707031 145.6875 39.324219 146.507812 38.171875 C 151.34375 31.363281 156.210938 24.566406 161.277344 17.859375 C 163.21875 15.285156 167.476562 14.8125 170.402344 16.496094 C 173.28125 18.152344 174.097656 21.367188 171.546875 23.433594 C 164.175781 29.414062 156.5625 35.210938 148.976562 41.027344 C 148.140625 41.671875 146.894531 41.996094 145.839844 42.46875 C 145.519531 42.304688 145.203125 42.144531 144.886719 41.980469 "/>
<path style=" stroke:none;fill-rule:nonzero;fill:rgb(25.098039%,23.921569%,24.313725%);fill-opacity:1;" d="M 105.015625 38.089844 C 103.667969 36.882812 102.0625 35.796875 101.011719 34.449219 C 96.03125 28.082031 91.113281 21.683594 86.367188 15.207031 C 84.332031 12.433594 85.839844 9.414062 89.40625 8.246094 C 92.847656 7.117188 96.664062 8.300781 97.796875 11.253906 C 100.65625 18.695312 103.296875 26.191406 105.863281 33.695312 C 106.292969 34.957031 105.921875 36.382812 105.921875 37.734375 C 105.621094 37.851562 105.320312 37.96875 105.015625 38.089844 "/>
<path style=" stroke:none;fill-rule:nonzero;fill:rgb(25.098039%,23.921569%,24.313725%);fill-opacity:1;" d="M 126.558594 31.929688 C 126.148438 30.121094 125.429688 28.316406 125.386719 26.5 C 125.207031 19.296875 125.148438 12.085938 125.234375 4.882812 C 125.269531 1.894531 128.574219 -0.265625 132.132812 0.0273438 C 135.902344 0.335938 138.679688 3.054688 137.75 6.011719 C 135.429688 13.394531 132.917969 20.746094 130.339844 28.078125 C 129.839844 29.5 128.707031 30.789062 127.867188 32.140625 C 127.429688 32.070312 126.996094 32 126.558594 31.929688 "/>
</g>
</svg>
