<?xml version="1.0" encoding="UTF-8" standalone="no"?>
<!-- Created with Inkscape (http://www.inkscape.org/) -->

<svg
   version="1.1"
   id="svg2"
   width="708.33331"
   height="915.47998"
   viewBox="0 0 708.33331 915.47998"
   sodipodi:docname="Snap.eps"
   xmlns:inkscape="http://www.inkscape.org/namespaces/inkscape"
   xmlns:sodipodi="http://sodipodi.sourceforge.net/DTD/sodipodi-0.dtd"
   xmlns="http://www.w3.org/2000/svg"
   xmlns:svg="http://www.w3.org/2000/svg">
  <defs
     id="defs6" />
  <sodipodi:namedview
     id="namedview4"
     pagecolor="#ffffff"
     bordercolor="#000000"
     borderopacity="0.25"
     inkscape:showpageshadow="2"
     inkscape:pageopacity="0.0"
     inkscape:pagecheckerboard="0"
     inkscape:deskcolor="#d1d1d1" />
  <g
     id="g8"
     inkscape:groupmode="layer"
     inkscape:label="ink_ext_XXXXXX"
     transform="matrix(1.3333333,0,0,-1.3333333,0,915.48)">
    <g
       id="g10"
       transform="scale(0.1)">
      <path
         d="m 1247.23,3327.25 c -40.94,37.44 -85.02,74.41 -125.28,115.17 -127.423,129 -169.462,283 -103.39,452.16 66.53,170.31 201.42,262.26 383.76,279.66 195.81,18.69 360.87,-59 517.63,-175.69 0,12.94 3.04,22.5 -0.43,26.87 -404.46,508.79 -829.79,997.45 -1349.52,1394.69 -30.305,23.16 -61.402,45.29 -92.34,67.61 -182.101,131.38 -245.375,309.04 -173.551,487.64 71.789,178.52 280.102,304.03 478.926,266.82 100.149,-18.75 203.942,-61.08 287.285,-119.54 564.62,-396.07 1063.24,-868.06 1538.51,-1365.31 162.2,-169.7 318.35,-345.25 474.92,-520.22 194.96,-217.89 434.5,-239.11 659.76,-51.4 74.24,61.87 139.69,134.17 212.29,198.15 168.87,148.8 360.18,263.12 568.28,346.67 177.8,71.39 360.97,73.88 541.99,8.25 153.49,-55.63 242.41,-177.47 246.27,-330.77 3.96,-156.66 -86,-245.84 -217.49,-310.03 -110.32,-53.85 -222.65,-107.15 -323.45,-176.22 -271.81,-186.24 -368.03,-471.41 -431.05,-778.32 -35.74,-174.04 -15.34,-320.79 68.45,-483.32 230.19,-446.5 310.99,-919.31 163.74,-1413.91 -1.68,-5.63 -2.85,-11.4 -4.36,-17.07 -41.77,-157.5 -124.22,-260.327 -289.6,-326.839 C 3764.45,695.52 3295.73,404.891 2862.35,59.3203 2805.08,13.6602 2748.58,-2.89844 2677.8,0.402344 2281.17,18.9219 1930.96,166.719 1607.19,385.02 c -510.14,343.96 -937.924,779 -1348.229,1232.44 -68.625,75.84 -138.762,153.6 -190.2618,241.04 -170.4612,289.4 -9.5429,603.07 326.4688,640.03 92.074,10.13 186.211,1.54 283.512,1.54 -26.133,23.14 -53.973,47.95 -81.996,72.56 -142.922,125.52 -203.504,278.44 -145.246,465.01 52.925,169.5 224.347,300.67 412.48,307.26 124.328,4.36 249.342,-10.77 383.312,-17.65"
         style="fill:#403d3e;fill-opacity:1;fill-rule:nonzero;stroke:none"
         id="path12" />
      <path
         d="m 4007.02,5365.6 c 14.56,45.61 22.18,95.03 44.82,136.19 133.76,243.3 268.36,486.24 408.44,725.92 53.79,92.02 171.44,108.92 252.4,48.8 79.66,-59.15 102.25,-174.1 31.69,-248.03 -203.87,-213.64 -414.49,-420.86 -624.21,-628.85 -23.16,-22.96 -57.61,-34.55 -86.83,-51.41 -8.77,5.79 -17.54,11.59 -26.31,17.38"
         style="fill:#403d3e;fill-opacity:1;fill-rule:nonzero;stroke:none"
         id="path14" />
      <path
         d="m 2904.38,5504.72 c -37.33,43.11 -81.71,81.95 -110.79,130.05 -137.69,227.63 -273.78,456.34 -405,687.74 -56.25,99.2 -14.54,207.13 84.05,248.89 95.22,40.34 200.68,-1.96 232.07,-107.51 79.11,-265.99 152.06,-533.87 223.04,-802.17 11.92,-45.09 1.68,-96.04 1.68,-144.28 -8.35,-4.24 -16.7,-8.48 -25.05,-12.72"
         style="fill:#403d3e;fill-opacity:1;fill-rule:nonzero;stroke:none"
         id="path16" />
      <path
         d="m 3500.16,5724.8 c -11.32,64.7 -31.2,129.25 -32.45,194.15 -4.96,257.49 -6.53,515.11 -4.22,772.64 0.95,106.73 92.39,184.01 190.85,173.58 104.22,-11.05 181.02,-108.32 155.33,-213.89 -64.21,-263.94 -133.7,-526.64 -204.94,-788.78 -13.82,-50.83 -45.16,-96.88 -68.42,-145.14 -12.05,2.48 -24.1,4.96 -36.15,7.44"
         style="fill:#403d3e;fill-opacity:1;fill-rule:nonzero;stroke:none"
         id="path18" />
    </g>
  </g>
</svg>
