<?xml version="1.0" encoding="utf-8"?>
<!-- Generator: Adobe Illustrator 27.4.0, SVG Export Plug-In . SVG Version: 6.00 Build 0)  -->
<svg version="1.1" id="Layer_1" xmlns="http://www.w3.org/2000/svg" xmlns:xlink="http://www.w3.org/1999/xlink" x="0px" y="0px"
	 viewBox="0 0 192 192" style="enable-background:new 0 0 192 192;" xml:space="preserve">
<style type="text/css">
	.st0{fill:#FFFFFF;}
</style>
<g id="g8" transform="matrix(1.3333333,0,0,-1.3333333,0,915.48)">
	<g id="g10" transform="scale(0.1)">
		<path id="path12" class="st0" d="M446.95,6125.05c-7.95,7.27-16.52,14.46-24.34,22.38c-24.76,25.06-32.92,54.98-20.09,87.85
			c12.93,33.09,39.13,50.95,74.56,54.33c38.04,3.63,70.11-11.46,100.57-34.13c0,2.51,0.59,4.37-0.08,5.22
			c-78.58,98.85-161.22,193.79-262.2,270.97c-5.89,4.5-11.93,8.8-17.94,13.14c-35.38,25.53-47.67,60.04-33.72,94.74
			c13.95,34.68,54.42,59.07,93.05,51.84c19.46-3.64,39.62-11.87,55.82-23.23c109.7-76.95,206.58-168.65,298.91-265.26
			c31.51-32.97,61.85-67.08,92.27-101.07c37.88-42.33,84.42-46.46,128.18-9.99c14.42,12.02,27.14,26.07,41.25,38.5
			c32.81,28.91,69.98,51.12,110.41,67.35c34.54,13.87,70.13,14.35,105.3,1.6c29.82-10.81,47.1-34.48,47.85-64.26
			c0.77-30.44-16.71-47.76-42.26-60.24c-21.43-10.46-43.26-20.82-62.84-34.24c-52.81-36.18-71.5-91.59-83.75-151.22
			c-6.94-33.81-2.98-62.33,13.3-93.9c44.72-86.75,60.42-178.61,31.81-274.71c-0.33-1.09-0.55-2.21-0.85-3.32
			c-8.12-30.6-24.13-50.58-56.27-63.5c-99.89-40.17-190.96-96.64-275.16-163.78c-11.13-8.87-22.1-12.09-35.86-11.45
			c-77.06,3.6-145.1,32.31-208.01,74.73c-99.11,66.83-182.23,151.35-261.95,239.45c-13.33,14.73-26.96,29.84-36.97,46.83
			c-33.12,56.23-1.85,117.17,63.43,124.35c17.89,1.97,36.18,0.3,55.08,0.3c-5.08,4.5-10.49,9.32-15.93,14.1
			c-27.77,24.39-39.54,54.1-28.22,90.35c10.28,32.93,43.59,58.42,80.14,59.7C396.63,6129.32,420.92,6126.38,446.95,6125.05"/>
		<path id="path14" class="st0" d="M983.14,6521.08c2.83,8.86,4.31,18.46,8.71,26.46c25.99,47.27,52.14,94.47,79.36,141.04
			c10.45,17.88,33.31,21.16,49.04,9.48c15.48-11.49,19.87-33.83,6.16-48.19c-39.61-41.51-80.53-81.77-121.28-122.18
			c-4.5-4.46-11.19-6.71-16.87-9.99C986.55,6518.82,984.85,6519.95,983.14,6521.08"/>
		<path id="path16" class="st0" d="M768.91,6548.1c-7.25,8.38-15.88,15.92-21.53,25.27c-26.75,44.23-53.19,88.66-78.69,133.62
			c-10.93,19.27-2.82,40.24,16.33,48.36c18.5,7.84,38.99-0.38,45.09-20.89c15.37-51.68,29.54-103.72,43.33-155.85
			c2.32-8.76,0.33-18.66,0.33-28.03C772.16,6549.75,770.54,6548.93,768.91,6548.1"/>
		<path id="path18" class="st0" d="M884.67,6590.86c-2.2,12.57-6.06,25.11-6.3,37.72c-0.96,50.03-1.27,100.08-0.82,150.11
			c0.18,20.74,17.95,35.75,37.08,33.72c20.25-2.15,35.17-21.05,30.18-41.56c-12.48-51.28-25.98-102.32-39.82-153.25
			c-2.69-9.88-8.77-18.82-13.29-28.2C889.35,6589.9,887.01,6590.38,884.67,6590.86"/>
	</g>
</g>
</svg>
